<?xml version="1.0" encoding="iso-8859-1"?>
<!-- Generator: Adobe Illustrator 19.0.0, SVG Export Plug-In . SVG Version: 6.00 Build 0)  -->
<svg version="1.1" id="Layer_1" xmlns="http://www.w3.org/2000/svg" xmlns:xlink="http://www.w3.org/1999/xlink" x="0px" y="0px"
	 viewBox="0 0 512 512" xml:space="preserve">
<circle style="fill:#FFC91B;" cx="256" cy="256" r="256"/>
<path style="fill:#D48B07;" d="M56.889,227.556l274.349,273.199c85.914-26.379,152.564-96.751,173.692-184.834L393.349,204.322
	L56.889,227.556z"/>
<path style="fill:#366695;" d="M311.48,170.667h-26.748v28.444c0,7.854-6.368,14.222-14.222,14.222l0,0
	c-7.854,0-14.222-6.368-14.222-14.222v-28.444H56.889v56.889l112.621,52.405c16.832,7.832,29.765,22.231,35.535,39.877
	c14.877,45.506,57.654,78.384,108.132,78.384c63.341,0,114.593-51.759,113.767-115.29
	C426.134,220.408,374.012,170.667,311.48,170.667z"/>
<g>
	<path style="fill:#273B7A;" d="M311.48,170.667h-0.028v227.521c0.576,0.009,1.146,0.034,1.724,0.034
		c63.341,0,114.593-51.759,113.767-115.288C426.134,220.408,374.012,170.667,311.48,170.667z"/>
	<circle style="fill:#273B7A;" cx="313.182" cy="284.444" r="56.889"/>
</g>
<path style="fill:#121149;" d="M313.177,227.556c-0.578,0-1.15,0.026-1.724,0.043v113.69c0.574,0.017,1.146,0.043,1.724,0.043
	c31.418,0,56.889-25.471,56.889-56.889S344.595,227.556,313.177,227.556z"/>
<g>
</g>
<g>
</g>
<g>
</g>
<g>
</g>
<g>
</g>
<g>
</g>
<g>
</g>
<g>
</g>
<g>
</g>
<g>
</g>
<g>
</g>
<g>
</g>
<g>
</g>
<g>
</g>
<g>
</g>
</svg>
